<svg width="200" height="60" viewBox="0 0 200 60" fill="none" xmlns="http://www.w3.org/2000/svg">
    <path d="M38.1 24.1C39.5 23.7 40.9 23.9 42.3 24.2C44 24.7 45.5 25.7 46.8 27C49.7 29.9 51.4 33.9 51.4 38C51.4 40.6 50.7 43.3 49.3 45.6C47.9 47.8 45.9 49.7 43.5 50.8C39.9 52.5 35.6 52.6 31.9 51.2C28.5 49.8 25.7 47.1 24.1 43.7C22.8 41 22.3 37.8 22.7 34.8C23.1 31.8 24.4 29 26.4 26.8C28.6 24.3 31.9 22.8 35.3 22.8C36.2 22.8 37.2 22.9 38.1 23.1V24.1Z" fill="#76B900"/>
    <path d="M116.2 38.4C115.9 41 114.7 43.5 112.8 45.3C110.4 47.7 106.9 48.8 103.5 48.4C101.2 48.2 99 47.2 97.3 45.7C95.4 44 94.1 41.6 93.9 39.1V32.2C94.2 29.8 95.4 27.6 97.1 26C99.6 23.7 103.3 22.7 106.7 23.5C109.4 24.1 111.7 25.8 113.2 28.1C114.5 30.1 115.1 32.5 115.1 34.9C115.1 36.1 114.9 37.3 114.6 38.4H116.2Z" fill="#76B900"/>
    <path d="M149.8 38.4C149.5 41 148.3 43.5 146.4 45.3C144 47.7 140.5 48.8 137.1 48.4C134.8 48.2 132.6 47.2 130.9 45.7C129 44 127.7 41.6 127.5 39.1V32.2C127.8 29.8 129 27.6 130.7 26C133.2 23.7 136.9 22.7 140.3 23.5C143 24.1 145.3 25.8 146.8 28.1C148.1 30.1 148.7 32.5 148.7 34.9C148.7 36.1 148.5 37.3 148.2 38.4H149.8Z" fill="#76B900"/>
    <path d="M70 46.9H67.2V25.1H79.1V27.9H70V46.9Z" fill="#76B900"/>
    <path d="M168.1 46.9H165.3V25.1H177.2V27.9H168.1V46.9Z" fill="#76B900"/>
    <path d="M183.1 25.1H186V46.9H183.1V25.1Z" fill="#76B900"/>
    <path d="M85.4 25.1H88.2V44.1H97.6V46.9H85.4V25.1Z" fill="#76B900"/>
    <path d="M153.3 25.1H156.1V44.1H165.5V46.9H153.3V25.1Z" fill="#76B900"/>
    <path d="M116.9 25.1H122.2V46.9H119.4V27.9H116.9V25.1Z" fill="#76B900"/>
</svg>
