<svg width="60" height="60" viewBox="0 0 60 60" fill="none" xmlns="http://www.w3.org/2000/svg">
    <path d="M39.7 17.1C37.4 17.1 35.1 18.1 33.4 19.5C31.7 20.9 30.5 23 30.1 25.2C30 25.8 30 26.3 30 26.9C30 27.4 30 28 30.2 28.6C28.5 28.6 26.9 28 25.6 27C24.3 26 23.3 24.6 22.8 23C22.2 21.5 22.1 19.8 22.6 18.2C23 16.6 24 15.2 25.3 14.2C27.8 12.3 30.9 11.6 33.9 12.3C36.9 13.1 39.3 15.1 40.5 17.9C40.2 17.5 40 17.2 39.7 17.1Z" fill="#A5A5A5"/>
    <path d="M47.1 41.3C46.9 42.6 46.5 43.9 45.8 45C44.6 47 42.5 48.3 40.2 48.3C39.1 48.3 38 48 37 47.5C36 47 34.9 46.7 33.8 46.7C32.6 46.7 31.4 47 30.3 47.5C29.2 48 28 48.3 26.8 48.2C25.6 48.2 24.4 47.8 23.4 47.1C22.3 46.4 21.5 45.4 20.8 44.3C19.1 41.5 18.2 38.3 18.2 35C18.2 32.7 18.8 30.5 20 28.6C20.9 27.2 22.1 26.1 23.6 25.3C25.1 24.6 26.7 24.3 28.3 24.3C29.4 24.3 30.5 24.6 31.5 25C32.6 25.5 33.7 25.7 34.9 25.7C36 25.7 37.1 25.4 38.1 25C39.2 24.5 40.4 24.3 41.6 24.4C43.6 24.5 45.6 25.1 47.2 26.3C46.1 27.7 45.5 29.4 45.4 31.2C45.4 33.2 46.1 35.2 47.5 36.6C48.1 37.2 48.9 37.7 49.7 38C49 39.2 48.1 40.3 47.1 41.3Z" fill="#A5A5A5"/>
</svg>
