<svg width="500" height="400" viewBox="0 0 500 400" fill="none" xmlns="http://www.w3.org/2000/svg">
    <rect x="50" y="50" width="400" height="300" rx="10" fill="#0A0A0A" stroke="#333333" stroke-width="2"/>
    <rect x="50" y="50" width="400" height="30" rx="10" fill="#1A1A1A"/>
    <circle cx="70" cy="65" r="6" fill="#FF5F56"/>
    <circle cx="90" cy="65" r="6" fill="#FFBD2E"/>
    <circle cx="110" cy="65" r="6" fill="#27C93F"/>
    
    <rect x="70" y="100" width="150" height="230" rx="5" fill="#1E1E1E" fill-opacity="0.5"/>
    <rect x="80" y="120" width="130" height="25" rx="4" fill="#007BFF" fill-opacity="0.2"/>
    <rect x="80" y="155" width="130" height="25" rx="4" fill="#1E1E1E" fill-opacity="0.8"/>
    <rect x="80" y="190" width="130" height="25" rx="4" fill="#1E1E1E" fill-opacity="0.8"/>
    <rect x="80" y="225" width="130" height="25" rx="4" fill="#1E1E1E" fill-opacity="0.8"/>
    <rect x="80" y="260" width="130" height="25" rx="4" fill="#1E1E1E" fill-opacity="0.8"/>
    
    <rect x="240" y="100" width="180" height="100" rx="5" fill="#1E1E1E" fill-opacity="0.5"/>
    <rect x="250" y="110" width="160" height="20" rx="4" fill="#1E1E1E" fill-opacity="0.8"/>
    <rect x="250" y="140" width="70" height="50" rx="4" fill="#1E1E1E" fill-opacity="0.8"/>
    <rect x="330" y="140" width="70" height="50" rx="4" fill="#1E1E1E" fill-opacity="0.8"/>
    
    <rect x="240" y="210" width="180" height="120" rx="5" fill="#1E1E1E" fill-opacity="0.5"/>
    <rect x="250" y="220" width="160" height="20" rx="4" fill="#1E1E1E" fill-opacity="0.8"/>
    
    <rect x="250" y="250" width="30" height="70" rx="4" fill="#FF6B6B" fill-opacity="0.3"/>
    <rect x="290" y="270" width="30" height="50" rx="4" fill="#FF9E40" fill-opacity="0.3"/>
    <rect x="330" y="260" width="30" height="60" rx="4" fill="#A78BFA" fill-opacity="0.3"/>
    <rect x="370" y="240" width="30" height="80" rx="4" fill="#0EA5E9" fill-opacity="0.3"/>
</svg>
